<svg version="1.1" id="Layer_1" xmlns="http://www.w3.org/2000/svg" xmlns:xlink="http://www.w3.org/1999/xlink" x="0px" y="0px"
	 width="100%" viewBox="0 0 560 352" enable-background="new 0 0 560 352" xml:space="preserve">
<path fill="#374151" opacity="1.000000" stroke="none" 
	d="
M561.000000,27.000000 
	C561.000000,135.640289 561.000000,244.280579 561.000000,352.960449 
	C374.405029,352.960449 187.810028,352.960449 1.107521,352.960449 
	C1.107521,235.766907 1.107521,118.533691 1.107521,1.000000 
	C175.023972,1.000000 349.048126,1.000000 523.312988,1.142086 
	C522.099854,2.022752 520.832703,2.671633 522.510925,4.566875 
	C525.440613,7.875502 526.197510,11.974988 526.073914,16.231676 
	C525.975098,19.637735 527.510193,21.849972 530.369690,23.506557 
	C532.813416,24.922258 535.062805,26.669064 537.460999,28.168884 
	C540.850037,30.288368 544.266418,30.990234 548.372253,29.694361 
	C552.442322,28.409771 556.548279,26.725243 561.000000,27.000000 
M371.956451,266.409332 
	C405.024567,282.455536 438.099701,298.487305 471.156097,314.557617 
	C479.948883,318.832214 481.093048,318.563293 486.891998,310.243011 
	C487.366638,309.561951 487.935547,308.947113 488.420746,308.272766 
	C497.247589,296.004974 505.484161,283.443115 511.840088,269.609375 
	C518.665710,254.753281 520.689453,238.736130 524.708496,223.190216 
	C526.060852,217.959457 524.046875,215.437775 519.749939,213.429428 
	C506.803162,207.378220 493.916718,201.198044 480.986053,195.112091 
	C443.097961,177.279678 405.196106,159.476547 367.307220,141.645737 
	C347.901733,132.513351 328.531799,123.305336 309.111786,114.204025 
	C273.444275,97.488235 237.742188,80.846176 202.072891,64.134155 
	C180.400070,53.979866 158.593231,44.087879 137.206955,33.359707 
	C130.491211,29.990833 125.956696,31.563429 121.279114,35.910782 
	C106.040581,50.073471 92.752563,65.742508 84.577614,85.143219 
	C80.728767,94.277275 78.906349,103.885994 79.413643,113.850731 
	C79.794380,121.329346 82.502769,126.719391 90.079201,130.097702 
	C107.690544,137.950531 124.925880,146.648224 142.296661,155.038589 
	C163.565018,165.311554 184.822998,175.606125 206.073090,185.916855 
	C240.195343,202.473282 274.302643,219.060608 308.425659,235.615463 
	C329.370880,245.777069 350.333679,255.902435 371.956451,266.409332 
M214.389191,202.324890 
	C196.466934,193.511398 178.517609,184.752213 160.642761,175.843613 
	C156.521698,173.789719 152.589828,173.570175 148.213455,174.930984 
	C135.386032,178.919662 122.432526,182.507416 109.638130,186.595566 
	C104.555801,188.219528 99.107407,189.043320 93.927284,192.158920 
	C98.405457,195.203384 105.928307,193.997528 105.524338,201.991684 
	C102.701736,202.260422 100.174515,201.704620 98.070297,200.570221 
	C90.940598,196.726593 83.274040,197.216599 75.671196,197.463043 
	C68.448952,197.697159 61.803860,200.140549 56.867966,205.468689 
	C47.118603,215.992844 42.505432,228.959625 41.507889,243.002304 
	C40.590145,255.921600 45.026466,267.824310 50.332417,279.426300 
	C54.486862,288.510437 60.597404,295.719513 69.353348,300.550964 
	C78.634834,305.672455 88.717781,308.031433 99.137352,309.773499 
	C109.295372,311.471832 116.597023,308.615448 121.744911,299.672485 
	C123.659042,296.347290 126.441620,297.225311 128.016800,299.970215 
	C129.390305,302.363708 130.647720,302.352814 132.830170,301.478912 
	C140.082138,298.575195 147.423080,295.893921 154.678467,292.998505 
	C186.006287,280.496674 217.317520,267.953308 248.631073,255.415726 
	C260.201294,250.783173 271.761841,246.126587 283.325073,241.476593 
	C284.561707,240.979294 285.946991,240.547028 286.110901,238.954163 
	C286.282349,237.287643 284.890564,236.737869 283.740112,236.093765 
	C282.723602,235.524628 281.678955,235.003250 280.630829,234.493393 
	C258.781830,223.864594 236.930527,213.240433 214.389191,202.324890 
M332.163727,117.831238 
	C350.297211,126.452385 368.430847,135.073120 386.563904,143.695190 
	C389.207520,144.952179 392.573822,147.534668 394.698364,145.230347 
	C397.232727,142.481537 395.168640,138.665924 393.473907,135.554031 
	C393.157166,134.972412 392.786011,134.418991 392.419495,133.866104 
	C385.728699,123.772133 377.148254,115.572998 367.171997,108.793770 
	C364.492004,106.972603 361.566132,105.708641 358.251251,106.706528 
	C349.684814,109.285316 341.134827,111.920776 332.607849,114.626839 
	C331.278809,115.048622 329.277283,115.691879 332.163727,117.831238 
z"/>
<path fill="#374151" opacity="1.000000" stroke="none" 
	d="
M130.678436,296.478241 
	C127.260582,297.970612 126.033165,296.739685 127.018585,293.774384 
	C129.788773,285.438385 132.801926,277.183044 135.723755,268.897491 
	C136.146759,267.697968 136.937210,266.948151 138.271133,266.880219 
	C140.124207,266.785828 140.305557,268.314514 140.740082,269.502380 
	C142.353500,273.912842 140.416229,278.033020 139.334259,282.106110 
	C137.890549,287.540985 135.676132,292.720825 130.678436,296.478241 
z"/>
<path fill="#374151" opacity="1.000000" stroke="none" 
	d="
M134.639374,243.185455 
	C134.866547,241.198166 134.232513,239.249985 136.658340,238.848724 
	C138.801727,238.494202 139.507965,240.088440 140.329895,241.503647 
	C143.275253,246.574921 142.839767,251.898315 141.486282,257.293488 
	C141.039413,259.074707 140.204453,260.401154 138.121155,260.115906 
	C136.315689,259.868652 135.948868,258.483307 135.645691,256.908173 
	C134.800964,252.519379 134.427032,248.110764 134.639374,243.185455 
z"/>
<path fill="#374151" opacity="1.000000" stroke="none" 
	d="
M132.762512,221.677567 
	C134.140472,224.233582 135.618301,227.012573 133.275955,228.761688 
	C130.768600,230.634018 128.266006,228.725494 126.413651,226.614319 
	C124.563148,224.505249 122.777191,222.338608 120.994057,220.171616 
	C119.729607,218.634995 119.063316,216.974213 120.742050,215.325241 
	C122.428291,213.668915 124.426178,213.723984 126.106712,215.154602 
	C128.370468,217.081696 130.397507,219.286865 132.762512,221.677567 
z"/>
</svg>