<?xml version="1.0" standalone="no"?>
<!DOCTYPE svg PUBLIC "-//W3C//DTD SVG 20010904//EN"
 "http://www.w3.org/TR/2001/REC-SVG-20010904/DTD/svg10.dtd">
<svg version="1.0" xmlns="http://www.w3.org/2000/svg"
 width="300.000000pt" height="194.000000pt" viewBox="0 0 300.000000 194.000000"
 preserveAspectRatio="xMidYMid meet">
<metadata>
Created by potrace 1.10, written by Peter Selinger 2001-2011
</metadata>
<g transform="translate(0.000000,194.000000) scale(0.100000,-0.100000)"
fill="#000000" stroke="none">
<path d="M545 1729 c-173 -163 -252 -333 -215 -468 l11 -43 207 -100 207 -100
-185 -55 c-102 -29 -206 -58 -232 -63 -146 -29 -240 -195 -210 -369 34 -193
175 -310 374 -311 51 0 111 21 550 196 271 108 498 199 503 204 6 4 195 -82
420 -192 226 -109 441 -214 480 -233 l70 -33 42 43 c99 104 186 276 203 402 6
49 15 106 20 128 5 22 6 43 2 47 -4 4 -160 78 -347 166 l-339 159 2 44 c3 35
-2 51 -25 79 -49 63 -144 150 -170 156 -16 4 -67 -6 -143 -30 l-118 -36 -193
91 c-615 289 -811 379 -829 379 -10 0 -49 -28 -85 -61z m806 -289 c387 -182
864 -406 1059 -498 195 -91 357 -167 359 -169 8 -6 -41 -219 -63 -273 -28 -70
-106 -196 -154 -250 l-37 -41 -545 264 c-300 145 -756 367 -1015 492 -259 125
-494 239 -524 254 -64 31 -75 54 -67 146 6 68 19 105 70 189 53 87 176 216
207 216 3 0 322 -149 710 -330z m582 -101 c45 -30 113 -102 136 -146 10 -20
16 -73 7 -73 -2 0 -52 24 -112 53 -60 29 -148 71 -196 93 l-87 39 97 31 c53
18 100 32 103 33 3 1 26 -13 52 -30z m-795 -505 c202 -97 370 -179 374 -183 5
-4 -801 -334 -906 -370 -6 -2 -2 6 8 18 11 11 16 24 12 29 -4 4 -14 -2 -22
-13 -37 -52 -43 -55 -98 -55 -73 0 -173 33 -228 74 -33 25 -53 53 -78 107 -31
67 -35 83 -35 164 0 73 4 99 23 140 43 93 105 134 202 135 38 0 50 3 40 10
-18 11 -31 6 160 61 80 23 152 45 160 50 8 5 16 9 18 9 1 0 168 -79 370 -176z"/>
<path d="M865 884 c24 -19 156 -87 160 -82 2 2 -38 24 -88 50 -51 26 -83 41
-72 32z"/>
<path d="M450 871 c0 -11 50 -24 58 -16 8 8 -19 25 -40 25 -10 0 -18 -4 -18
-9z"/>
<path d="M611 743 c32 -37 43 -44 48 -32 4 14 -39 59 -57 59 -12 0 -9 -7 9
-27z"/>
<path d="M673 615 c4 -22 7 -48 7 -57 0 -10 5 -18 10 -18 17 0 12 86 -7 101
-15 13 -16 11 -10 -26z"/>
<path d="M664 437 c-11 -34 -24 -70 -28 -79 -13 -30 8 -20 27 11 19 33 38 119
28 125 -4 3 -16 -23 -27 -57z"/>
</g>
</svg>
