<?xml version="1.0" standalone="no"?>
<!DOCTYPE svg PUBLIC "-//W3C//DTD SVG 20010904//EN"
 "http://www.w3.org/TR/2001/REC-SVG-20010904/DTD/svg10.dtd">
<svg version="1.0" xmlns="http://www.w3.org/2000/svg"
 width="800.000000pt" height="800.000000pt" viewBox="0 0 800.000000 800.000000"
 preserveAspectRatio="xMidYMid meet">
<metadata>
Created by potrace 1.14, written by Peter Selinger 2001-2017
</metadata>
<g transform="translate(0.000000,800.000000) scale(0.100000,-0.100000)"
fill="#000000" stroke="none">
<path d="M1660 6173 c-17 -7 -97 -60 -120 -79 -228 -198 -397 -395 -518 -605
-135 -233 -184 -431 -159 -634 6 -47 42 -193 49 -200 2 -2 64 -32 138 -68 74
-35 207 -99 295 -142 273 -132 466 -225 565 -272 67 -32 90 -47 80 -53 -8 -4
-53 -19 -100 -33 -47 -14 -137 -41 -200 -60 -63 -19 -158 -47 -210 -61 -52
-15 -124 -35 -160 -46 -73 -22 -159 -45 -370 -100 -140 -36 -231 -70 -258 -97
-7 -7 -18 -13 -23 -13 -19 0 -151 -136 -193 -199 -68 -104 -125 -254 -142
-376 -7 -45 -6 -247 1 -275 3 -14 8 -43 11 -65 17 -110 89 -285 165 -397 125
-184 356 -336 569 -374 8 -1 24 -4 35 -7 46 -11 155 -21 222 -20 115 2 245 42
658 203 116 45 215 82 220 84 6 1 26 9 45 17 19 9 103 41 185 73 83 32 157 61
167 66 9 5 54 23 100 41 45 17 97 37 113 45 17 7 242 97 500 199 259 103 488
195 510 205 22 9 102 43 178 75 l139 57 46 -17 c26 -10 70 -27 97 -40 28 -12
84 -37 125 -55 74 -32 161 -72 329 -152 47 -22 127 -60 176 -83 89 -42 263
-126 590 -285 94 -45 229 -111 300 -145 72 -34 234 -113 360 -175 127 -62 295
-143 375 -181 80 -38 153 -74 163 -80 15 -8 28 1 80 53 105 107 172 189 241
293 37 55 70 105 74 111 51 74 203 399 218 464 0 3 3 12 7 20 7 17 29 97 33
120 5 29 34 215 39 250 8 56 17 114 22 135 10 47 14 74 19 135 l6 65 -89 42
c-135 65 -410 196 -483 231 -36 16 -112 53 -170 80 -58 27 -173 81 -255 120
-83 38 -203 95 -268 126 -65 31 -120 56 -123 56 -2 0 -58 27 -124 59 -66 33
-123 60 -125 60 -24 5 -203 96 -200 102 9 14 7 205 -3 229 -38 96 -340 404
-482 492 -42 26 -185 4 -375 -57 -72 -23 -249 -77 -260 -79 -5 -2 -28 -8 -50
-15 -44 -14 -16 -25 -355 136 -52 25 -129 61 -170 80 -162 76 -218 102 -305
144 -49 23 -92 43 -95 44 -3 0 -54 24 -114 53 -59 29 -110 52 -111 52 -2 0
-69 32 -150 70 -81 39 -148 70 -150 70 -2 0 -59 26 -127 59 -167 80 -295 140
-343 161 -22 10 -74 33 -115 53 -70 32 -99 46 -255 117 -33 15 -85 39 -115 53
-128 58 -341 147 -353 146 -6 0 -19 -3 -27 -6z m132 -85 c32 -15 60 -28 62
-28 2 0 53 -23 113 -51 168 -79 235 -110 428 -199 99 -46 189 -89 200 -96 11
-7 25 -13 30 -14 6 0 33 -12 60 -25 110 -51 246 -115 365 -170 69 -32 172 -80
230 -107 58 -28 128 -60 155 -73 110 -51 716 -335 800 -375 79 -38 234 -110
515 -242 47 -22 112 -53 145 -68 33 -15 110 -51 170 -80 61 -29 137 -65 170
-80 33 -15 118 -55 189 -89 70 -33 129 -61 131 -61 2 0 67 -31 146 -68 79 -38
160 -76 179 -85 19 -8 106 -50 193 -91 87 -42 160 -76 162 -76 2 0 63 -29 137
-64 73 -35 158 -75 188 -89 58 -26 176 -81 327 -153 51 -25 95 -44 98 -45 2 0
36 -15 75 -35 38 -19 72 -34 75 -35 2 0 50 -22 105 -50 55 -27 104 -49 109
-49 19 0 38 -37 34 -65 -24 -187 -139 -624 -195 -744 -103 -221 -296 -514
-433 -659 l-51 -53 -199 97 c-110 53 -267 129 -350 169 -82 40 -224 108 -315
152 -557 271 -751 363 -759 363 -5 0 -14 7 -21 15 -6 8 -15 14 -18 13 -7 -1
-75 31 -437 207 -110 54 -263 128 -340 165 -77 37 -234 113 -350 170 -415 201
-463 224 -645 313 -102 49 -234 113 -295 142 -60 29 -195 94 -300 146 -104 51
-192 93 -195 94 -3 1 -70 33 -150 72 -172 84 -418 203 -585 283 -66 32 -223
109 -350 171 -126 62 -232 113 -235 113 -28 5 -126 75 -150 107 -43 61 -52
129 -37 299 17 199 112 408 299 653 124 162 320 358 402 401 31 16 33 15 118
-26z m3278 -1059 c0 -5 5 -9 11 -9 27 0 174 -118 261 -209 143 -150 190 -228
201 -334 6 -49 1 -77 -13 -77 -7 0 -136 61 -435 205 -211 101 -345 165 -349
165 -2 0 -44 18 -93 41 -48 22 -106 48 -127 58 l-40 18 165 54 c90 29 169 54
174 56 6 1 50 15 99 31 72 24 95 28 118 20 15 -6 28 -14 28 -19z m-2958 -958
c34 -16 115 -53 178 -84 63 -30 153 -73 200 -95 96 -45 269 -128 475 -227 77
-37 181 -87 230 -110 107 -51 457 -221 679 -330 l159 -79 -54 -26 c-30 -14
-139 -61 -244 -104 -104 -44 -246 -103 -315 -131 -69 -29 -188 -78 -265 -109
-77 -32 -159 -66 -182 -77 -24 -10 -45 -19 -47 -19 -2 0 -21 -8 -42 -17 -22
-9 -41 -17 -44 -17 -3 -1 -24 -9 -45 -18 -22 -9 -148 -60 -280 -113 -132 -53
-249 -100 -260 -105 -11 -5 -67 -28 -125 -50 -58 -23 -121 -48 -140 -57 -46
-20 -370 -143 -377 -143 -6 0 26 50 44 68 14 15 18 62 4 62 -10 0 -71 -58 -71
-68 0 -4 -20 -29 -44 -54 -61 -62 -105 -71 -281 -58 -103 8 -259 52 -378 108
-170 80 -250 161 -342 347 -92 189 -98 211 -100 433 -3 222 7 284 60 398 60
130 141 229 234 285 32 19 134 55 180 65 19 3 76 7 127 8 100 3 120 10 91 31
-13 10 -14 14 -5 22 13 10 189 66 242 78 6 1 18 5 26 8 16 6 184 56 210 62 8
1 69 20 135 40 66 20 134 41 150 45 57 15 125 42 131 51 8 14 16 12 86 -20z"/>
<path d="M2310 3766 c0 -16 391 -221 410 -214 6 2 -6 12 -27 23 -21 11 -40 22
-43 26 -6 6 -328 169 -335 169 -3 0 -5 -2 -5 -4z"/>
<path d="M1217 3748 c-9 -5 -17 -13 -17 -19 0 -23 141 -61 154 -41 20 33 -95
84 -137 60z"/>
<path d="M1590 3446 c0 -16 105 -133 133 -148 27 -14 40 2 28 34 -11 29 -77
100 -108 116 -29 16 -53 15 -53 -2z"/>
<path d="M1789 3132 c-5 -43 -5 -52 0 -52 3 0 7 -12 7 -27 3 -55 17 -159 25
-181 5 -13 14 -22 21 -20 34 12 32 162 -3 235 -18 37 -48 64 -50 45z"/>
<path d="M1820 2698 c-11 -18 -39 -89 -61 -158 -23 -69 -46 -131 -52 -137 -5
-7 -7 -13 -3 -13 4 0 0 -13 -8 -29 -24 -46 -3 -55 37 -16 32 33 61 95 87 187
21 75 38 198 26 198 -3 0 -15 -15 -26 -32z"/>
</g>
</svg>
